<svg width="219" height="87" viewBox="0 0 219 87" fill="none" xmlns="http://www.w3.org/2000/svg">
<path opacity="0.9" d="M86.3523 52L89.2159 34.5455H90.9205L88.0568 52H86.3523ZM78.4091 47.1591L78.6818 45.4545H91.7045L91.4318 47.1591H78.4091ZM80.2159 52L83.0795 34.5455H84.7841L81.9205 52H80.2159ZM79.4318 41.0909L79.7045 39.3864H92.7273L92.4545 41.0909H79.4318ZM95.2543 52V34.5455H97.3679V50.125H105.482V52H95.2543ZM113.97 52.2727C112.709 52.2727 111.621 51.9943 110.706 51.4375C109.797 50.875 109.095 50.0909 108.601 49.0852C108.112 48.0739 107.868 46.8977 107.868 45.5568C107.868 44.2159 108.112 43.0341 108.601 42.0114C109.095 40.983 109.783 40.1818 110.663 39.608C111.55 39.0284 112.584 38.7386 113.766 38.7386C114.447 38.7386 115.121 38.8523 115.786 39.0795C116.45 39.3068 117.055 39.6761 117.601 40.1875C118.146 40.6932 118.581 41.3636 118.905 42.1989C119.229 43.0341 119.391 44.0625 119.391 45.2841V46.1364H109.3V44.3977H117.345C117.345 43.6591 117.197 43 116.902 42.4205C116.612 41.8409 116.197 41.3835 115.658 41.0483C115.124 40.7131 114.493 40.5455 113.766 40.5455C112.964 40.5455 112.271 40.7443 111.686 41.142C111.107 41.5341 110.661 42.0455 110.348 42.6761C110.036 43.3068 109.879 43.983 109.879 44.7045V45.8636C109.879 46.8523 110.05 47.6903 110.391 48.3778C110.737 49.0597 111.217 49.5795 111.831 49.9375C112.445 50.2898 113.158 50.4659 113.97 50.4659C114.499 50.4659 114.976 50.392 115.402 50.2443C115.834 50.0909 116.206 49.8636 116.518 49.5625C116.831 49.2557 117.072 48.875 117.243 48.4205L119.186 48.9659C118.982 49.625 118.638 50.2045 118.155 50.7045C117.672 51.1989 117.075 51.5852 116.365 51.8636C115.655 52.1364 114.857 52.2727 113.97 52.2727ZM128.143 38.9091V40.6136H121.359V38.9091H128.143ZM123.337 35.7727H125.348V48.25C125.348 48.8182 125.43 49.2443 125.595 49.5284C125.766 49.8068 125.982 49.9943 126.243 50.0909C126.51 50.1818 126.791 50.2273 127.087 50.2273C127.308 50.2273 127.49 50.2159 127.632 50.1932C127.774 50.1648 127.888 50.142 127.973 50.125L128.382 51.9318C128.246 51.983 128.055 52.0341 127.811 52.0852C127.567 52.142 127.257 52.1705 126.882 52.1705C126.314 52.1705 125.757 52.0483 125.212 51.804C124.672 51.5597 124.223 51.1875 123.865 50.6875C123.513 50.1875 123.337 49.5568 123.337 48.7955V35.7727ZM133.621 34.5455V36.0795C133.621 36.5455 133.536 37.0426 133.366 37.571C133.201 38.0938 132.957 38.6023 132.633 39.0966C132.315 39.5852 131.928 40.0114 131.474 40.375L130.383 39.4886C130.741 38.9773 131.05 38.446 131.312 37.8949C131.579 37.3381 131.712 36.7443 131.712 36.1136V34.5455H133.621ZM143.7 41.8409L141.893 42.3523C141.779 42.0511 141.612 41.7585 141.39 41.4744C141.174 41.1847 140.879 40.946 140.504 40.7585C140.129 40.571 139.648 40.4773 139.063 40.4773C138.262 40.4773 137.594 40.6619 137.06 41.0312C136.532 41.3949 136.268 41.858 136.268 42.4205C136.268 42.9205 136.45 43.3153 136.813 43.6051C137.177 43.8949 137.745 44.1364 138.518 44.3295L140.461 44.8068C141.631 45.0909 142.504 45.5256 143.077 46.1108C143.651 46.6903 143.938 47.4375 143.938 48.3523C143.938 49.1023 143.722 49.7727 143.29 50.3636C142.864 50.9545 142.268 51.4205 141.501 51.7614C140.734 52.1023 139.842 52.2727 138.825 52.2727C137.489 52.2727 136.384 51.983 135.509 51.4034C134.634 50.8239 134.08 49.9773 133.847 48.8636L135.756 48.3864C135.938 49.0909 136.282 49.6193 136.788 49.9716C137.299 50.3239 137.967 50.5 138.79 50.5C139.728 50.5 140.472 50.3011 141.023 49.9034C141.58 49.5 141.859 49.017 141.859 48.4545C141.859 48 141.7 47.6193 141.381 47.3125C141.063 47 140.575 46.767 139.915 46.6136L137.734 46.1023C136.535 45.8182 135.654 45.3778 135.092 44.7812C134.535 44.179 134.256 43.4261 134.256 42.5227C134.256 41.7841 134.464 41.1307 134.879 40.5625C135.299 39.9943 135.87 39.5483 136.592 39.2244C137.319 38.9006 138.143 38.7386 139.063 38.7386C140.359 38.7386 141.376 39.0227 142.114 39.5909C142.859 40.1591 143.387 40.9091 143.7 41.8409ZM147.239 34.5455H149.761L155.693 49.0341H155.898L161.83 34.5455H164.352V52H162.375V38.7386H162.205L156.75 52H154.841L149.386 38.7386H149.216V52H147.239V34.5455ZM172.17 52.3068C171.34 52.3068 170.587 52.1506 169.911 51.8381C169.235 51.5199 168.698 51.0625 168.3 50.4659C167.903 49.8636 167.704 49.1364 167.704 48.2841C167.704 47.5341 167.852 46.9261 168.147 46.4602C168.442 45.9886 168.837 45.6193 169.332 45.3523C169.826 45.0852 170.371 44.8864 170.968 44.7557C171.57 44.6193 172.175 44.5114 172.783 44.4318C173.579 44.3295 174.224 44.2528 174.718 44.2017C175.218 44.1449 175.582 44.0511 175.809 43.9205C176.042 43.7898 176.158 43.5625 176.158 43.2386V43.1705C176.158 42.3295 175.928 41.6761 175.468 41.2102C175.013 40.7443 174.323 40.5114 173.397 40.5114C172.437 40.5114 171.684 40.7216 171.138 41.142C170.593 41.5625 170.21 42.0114 169.988 42.4886L168.079 41.8068C168.42 41.0114 168.874 40.392 169.442 39.9489C170.016 39.5 170.641 39.1875 171.317 39.0114C171.999 38.8295 172.67 38.7386 173.329 38.7386C173.749 38.7386 174.232 38.7898 174.778 38.892C175.329 38.9886 175.86 39.1903 176.371 39.4972C176.888 39.804 177.317 40.267 177.658 40.8864C177.999 41.5057 178.17 42.3352 178.17 43.375V52H176.158V50.2273H176.056C175.92 50.5114 175.692 50.8153 175.374 51.1392C175.056 51.4631 174.633 51.7386 174.104 51.9659C173.576 52.1932 172.931 52.3068 172.17 52.3068ZM172.477 50.5C173.272 50.5 173.942 50.3438 174.488 50.0312C175.039 49.7188 175.454 49.3153 175.732 48.821C176.016 48.3267 176.158 47.8068 176.158 47.2614V45.4205C176.073 45.5227 175.886 45.6165 175.596 45.7017C175.312 45.7812 174.982 45.8523 174.607 45.9148C174.238 45.9716 173.877 46.0227 173.525 46.0682C173.178 46.108 172.897 46.142 172.681 46.1705C172.158 46.2386 171.67 46.3494 171.215 46.5028C170.766 46.6506 170.403 46.875 170.124 47.1761C169.852 47.4716 169.715 47.875 169.715 48.3864C169.715 49.0852 169.974 49.6136 170.491 49.9716C171.013 50.3239 171.675 50.5 172.477 50.5ZM187.534 38.9091V40.6136H180.75V38.9091H187.534ZM182.727 35.7727H184.739V48.25C184.739 48.8182 184.821 49.2443 184.986 49.5284C185.156 49.8068 185.372 49.9943 185.634 50.0909C185.901 50.1818 186.182 50.2273 186.477 50.2273C186.699 50.2273 186.881 50.2159 187.023 50.1932C187.165 50.1648 187.278 50.142 187.364 50.125L187.773 51.9318C187.636 51.983 187.446 52.0341 187.202 52.0852C186.957 52.142 186.648 52.1705 186.273 52.1705C185.705 52.1705 185.148 52.0483 184.602 51.804C184.063 51.5597 183.614 51.1875 183.256 50.6875C182.903 50.1875 182.727 49.5568 182.727 48.7955V35.7727ZM195.908 52.2727C194.646 52.2727 193.558 51.9943 192.643 51.4375C191.734 50.875 191.033 50.0909 190.538 49.0852C190.05 48.0739 189.805 46.8977 189.805 45.5568C189.805 44.2159 190.05 43.0341 190.538 42.0114C191.033 40.983 191.72 40.1818 192.601 39.608C193.487 39.0284 194.521 38.7386 195.703 38.7386C196.385 38.7386 197.058 38.8523 197.723 39.0795C198.388 39.3068 198.993 39.6761 199.538 40.1875C200.084 40.6932 200.518 41.3636 200.842 42.1989C201.166 43.0341 201.328 44.0625 201.328 45.2841V46.1364H191.237V44.3977H199.283C199.283 43.6591 199.135 43 198.839 42.4205C198.55 41.8409 198.135 41.3835 197.595 41.0483C197.061 40.7131 196.43 40.5455 195.703 40.5455C194.902 40.5455 194.209 40.7443 193.624 41.142C193.044 41.5341 192.598 42.0455 192.286 42.6761C191.973 43.3068 191.817 43.983 191.817 44.7045V45.8636C191.817 46.8523 191.987 47.6903 192.328 48.3778C192.675 49.0597 193.155 49.5795 193.768 49.9375C194.382 50.2898 195.095 50.4659 195.908 50.4659C196.436 50.4659 196.913 50.392 197.339 50.2443C197.771 50.0909 198.143 49.8636 198.456 49.5625C198.768 49.2557 199.01 48.875 199.18 48.4205L201.124 48.9659C200.919 49.625 200.575 50.2045 200.092 50.7045C199.609 51.1989 199.013 51.5852 198.303 51.8636C197.592 52.1364 196.794 52.2727 195.908 52.2727Z" fill="white"/>
<mask id="mask0_460_64" style="mask-type:luminance" maskUnits="userSpaceOnUse" x="11" y="8" width="53" height="65">
<path d="M11.3852 8.70001H63.8583V72.5806H11.3852V8.70001Z" fill="white"/>
</mask>
<g mask="url(#mask0_460_64)">
<path d="M28.6065 28.0535C23.265 26.3585 19.5226 23.0905 17.3236 20.6474C15.8527 19.0124 14.8533 17.5162 14.2965 16.594C24.4771 10.1672 34.4992 9.53871 44.1012 14.7287C48.2079 16.949 51.3961 19.8314 53.4457 21.9917C52.0368 21.1903 50.1165 20.2266 47.717 19.3157C42.7112 17.4147 34.5911 15.4063 24.3345 16.6351C23.946 16.6821 23.6687 17.0346 23.7152 17.4231C23.7618 17.8116 24.1146 18.0889 24.5032 18.0419C34.4446 16.8512 42.3089 18.7854 47.1556 20.618C50.7689 21.9845 53.2888 23.4983 54.5227 24.3194C44.8556 29.1876 36.146 30.4454 28.6065 28.0535ZM60.8337 28.4508L59.8008 29.4787C59.5167 29.7619 59.3867 30.1655 59.4525 30.5616C60.4624 36.6054 61.7932 51.6743 52.3632 61.0624C42.9298 70.4538 27.7879 69.128 21.7156 68.1223C21.3216 68.0573 20.921 68.1853 20.6382 68.4672L19.6056 69.4947C18.8169 70.2801 17.5334 70.2801 16.7447 69.4947C16.3641 69.1163 16.1547 68.6136 16.1547 68.0787C16.1547 67.5437 16.3641 67.0411 16.7447 66.6623L18.086 65.3272C18.3667 65.0478 18.4972 64.6521 18.4372 64.2611C17.3178 56.9297 16.7644 43.3112 25.641 34.4748C27.0138 33.1079 28.502 31.9655 30.0636 31.0152C32.1115 31.48 34.2265 31.7133 36.4069 31.7133C42.0005 31.7133 48.0208 30.1836 54.4073 27.138C54.8101 27.1904 55.199 27.245 55.5708 27.3012C55.9593 27.3604 56.3528 27.2307 56.631 26.9542L57.9723 25.6184C58.7615 24.8329 60.0449 24.8329 60.8337 25.6184C61.2138 25.9968 61.4232 26.5003 61.4232 27.0348C61.4232 27.5693 61.2138 28.0724 60.8337 28.4508ZM62.5829 30.2083C63.4341 29.3608 63.9032 28.2335 63.9032 27.0348C63.9032 25.8353 63.4341 24.7083 62.5829 23.8608C61.2273 22.5111 59.2142 22.2061 57.5603 22.9437C56.12 21.0963 51.8748 16.1346 45.3616 12.5914C40.6399 10.0229 35.7155 8.74909 30.7185 8.80028C24.4977 8.86699 18.1863 11.0047 11.9591 15.1549C11.4427 15.499 11.2606 16.172 11.532 16.7291C11.582 16.8332 12.8008 19.309 15.4109 22.2287C17.6979 24.7872 21.5213 28.1676 26.9542 30.111C25.8634 30.9019 24.8417 31.7708 23.8914 32.7173C19.596 36.9939 16.886 42.7054 15.8371 49.694C15.0119 55.1885 15.3865 60.4112 15.8942 64.0102L14.9951 64.9047C14.1442 65.7522 13.6756 66.8796 13.6756 68.0791C13.6756 69.2778 14.1442 70.4051 14.9951 71.2527C15.872 72.1249 17.0237 72.5613 18.1749 72.5613C19.327 72.5613 20.4787 72.1249 21.3552 71.2527L21.9405 70.6699C25.5575 71.2258 30.8259 71.6718 36.4354 70.9254C43.7396 69.9529 49.6873 67.2261 54.1128 62.8199C58.5396 58.4133 61.2797 52.4903 62.2564 45.2156C63.0066 39.6333 62.5594 34.3893 62.0009 30.7878L62.5829 30.2083Z" fill="white"/>
</g>
<mask id="mask1_460_64" style="mask-type:luminance" maskUnits="userSpaceOnUse" x="29" y="40" width="5" height="5">
<path d="M29.3839 40.6508H33.5472V44.8141H29.3839V40.6508Z" fill="white"/>
</mask>
<g mask="url(#mask1_460_64)">
<mask id="mask2_460_64" style="mask-type:luminance" maskUnits="userSpaceOnUse" x="29" y="40" width="5" height="5">
<path d="M31.4658 40.6508C30.3162 40.6508 29.3839 41.5826 29.3839 42.7322C29.3839 43.8818 30.3162 44.8141 31.4658 44.8141C32.6154 44.8141 33.5472 43.8818 33.5472 42.7322C33.5472 41.5826 32.6154 40.6508 31.4658 40.6508Z" fill="white"/>
</mask>
<g mask="url(#mask2_460_64)">
<path d="M29.3839 40.6508H33.5472V44.8141H29.3839V40.6508Z" fill="white"/>
</g>
</g>
<mask id="mask3_460_64" style="mask-type:luminance" maskUnits="userSpaceOnUse" x="47" y="40" width="5" height="5">
<path d="M47.276 40.6508H51.4393V44.8141H47.276V40.6508Z" fill="white"/>
</mask>
<g mask="url(#mask3_460_64)">
<mask id="mask4_460_64" style="mask-type:luminance" maskUnits="userSpaceOnUse" x="47" y="40" width="5" height="5">
<path d="M49.3579 40.6508C48.2079 40.6508 47.276 41.5826 47.276 42.7322C47.276 43.8818 48.2079 44.8141 49.3579 44.8141C50.5075 44.8141 51.4393 43.8818 51.4393 42.7322C51.4393 41.5826 50.5075 40.6508 49.3579 40.6508Z" fill="white"/>
</mask>
<g mask="url(#mask4_460_64)">
<path d="M47.276 40.6508H51.4393V44.8141H47.276V40.6508Z" fill="white"/>
</g>
</g>
<mask id="mask5_460_64" style="mask-type:luminance" maskUnits="userSpaceOnUse" x="29" y="47" width="23" height="12">
<path d="M29.3839 47.9935H51.0185V58.3852H29.3839V47.9935Z" fill="white"/>
</mask>
<g mask="url(#mask5_460_64)">
<path d="M40.1993 36.7564C34.224 36.7564 29.3839 41.5965 29.3839 47.5718C29.3839 53.5472 34.224 58.3869 40.1993 58.3869C46.1747 58.3869 51.0143 53.5472 51.0143 47.5718C51.0143 41.5965 46.1747 36.7564 40.1993 36.7564ZM40.1993 56.224C35.4189 56.224 31.5472 52.3519 31.5472 47.5718C31.5472 42.7914 35.4189 38.9197 40.1993 38.9197C44.9794 38.9197 48.8515 42.7914 48.8515 47.5718C48.8515 52.3519 44.9794 56.224 40.1993 56.224Z" fill="white"/>
</g>
<path d="M51.8377 74.9942H54.1638C54.3518 74.9942 54.4881 75.0156 54.5733 75.0579C54.6593 75.1007 54.7164 75.1679 54.7445 75.2593C54.7734 75.35 54.7881 75.4708 54.7881 75.6218C54.7881 75.7729 54.7734 75.8945 54.7445 75.986C54.7164 76.0766 54.6681 76.1396 54.6001 76.174C54.4915 76.231 54.3434 76.2596 54.1554 76.2596H51.0758C50.6772 76.2596 50.4435 76.1513 50.3743 75.934C50.3408 75.8434 50.324 75.6982 50.324 75.4976V70.7432C50.324 70.6123 50.3278 70.5145 50.3357 70.4495C50.3445 70.3836 50.3718 70.3077 50.418 70.2213C50.4973 70.0681 50.7192 69.9913 51.0842 69.9913C51.4836 69.9913 51.7203 70.0966 51.7941 70.3068C51.8231 70.4042 51.8377 70.5527 51.8377 70.7516V74.9942Z" fill="white"/>
<path d="M55.3442 72.5053C55.3442 72.3744 55.348 72.2762 55.356 72.21C55.3648 72.1441 55.3895 72.0686 55.4298 71.9834C55.5091 71.8357 55.731 71.7619 56.0961 71.7619C56.37 71.7619 56.5643 71.8101 56.6784 71.9062C56.7745 71.9859 56.8261 72.1084 56.8328 72.2737C56.8383 72.3308 56.8412 72.4139 56.8412 72.5221V75.5161C56.8412 75.647 56.8366 75.7456 56.8278 75.8115C56.8185 75.8765 56.7917 75.952 56.7472 76.038C56.6721 76.1857 56.4523 76.2595 56.0877 76.2595C55.7285 76.2595 55.5091 76.1823 55.4298 76.0279C55.3895 75.9432 55.3648 75.8694 55.356 75.8064C55.348 75.7439 55.3442 75.6445 55.3442 75.5077V72.5053ZM56.7506 70.9194C56.7078 71.0012 56.6323 71.0595 56.524 71.0939C56.4153 71.1287 56.271 71.1459 56.091 71.1459C55.9119 71.1459 55.768 71.1287 55.6597 71.0939C55.5523 71.0595 55.4768 70.9995 55.4332 70.9143C55.3904 70.8296 55.3648 70.7541 55.356 70.6878C55.348 70.6219 55.3442 70.5233 55.3442 70.3924C55.3442 70.2615 55.348 70.1638 55.356 70.0987C55.3648 70.0329 55.3895 69.9594 55.4298 69.8789C55.5091 69.7257 55.731 69.649 56.0961 69.649C56.4552 69.649 56.6721 69.7257 56.7472 69.8789C56.7917 69.9653 56.8185 70.0412 56.8278 70.1071C56.8366 70.1721 56.8412 70.2699 56.8412 70.4008C56.8412 70.5317 56.8366 70.6303 56.8278 70.6962C56.8185 70.7625 56.7929 70.8367 56.7506 70.9194Z" fill="white"/>
<path d="M58.9952 72.3509C59.2637 71.9461 59.5859 71.7434 59.9619 71.7434C60.5434 71.7434 60.9772 71.9918 61.2625 72.4885C61.325 72.4025 61.4005 72.3123 61.4891 72.2184C61.5772 72.1244 61.7181 72.022 61.912 71.9112C62.1054 71.7996 62.3051 71.7434 62.5111 71.7434C62.9663 71.7434 63.3477 71.9192 63.6557 72.2704C63.9645 72.6207 64.1189 73.201 64.1189 74.0107V75.5077C64.1189 75.6386 64.1142 75.7372 64.1054 75.8031C64.0975 75.8681 64.0706 75.9432 64.0249 76.028C63.951 76.1824 63.7312 76.2596 63.3653 76.2596C63.0062 76.2596 62.7868 76.1798 62.7075 76.0196C62.6672 75.9348 62.6424 75.8597 62.6336 75.7947C62.6256 75.7288 62.6219 75.6298 62.6219 75.4976V74.0023C62.6219 73.5056 62.4448 73.2572 62.0915 73.2572C61.8923 73.2572 61.7567 73.3235 61.6854 73.4552C61.6137 73.5861 61.578 73.7716 61.578 74.0107V75.5077C61.578 75.6445 61.5734 75.7439 61.5646 75.8064C61.5566 75.8694 61.5298 75.9432 61.484 76.028C61.4043 76.1824 61.1824 76.2596 60.8178 76.2596C60.4586 76.2596 60.2388 76.1798 60.1582 76.0196C60.1188 75.9348 60.0949 75.8597 60.0861 75.7947C60.0768 75.7288 60.0726 75.6298 60.0726 75.4976V74.0023C60.0726 73.5056 59.8956 73.2572 59.5423 73.2572C59.2008 73.2572 59.0304 73.5056 59.0304 74.0023V75.5161C59.0304 75.647 59.0258 75.7456 59.017 75.8115C59.0078 75.8765 58.9809 75.952 58.9365 76.038C58.85 76.1857 58.6277 76.2596 58.2685 76.2596C57.9094 76.2596 57.6899 76.1824 57.6106 76.028C57.5704 75.9432 57.5456 75.8694 57.5368 75.8064C57.5288 75.7439 57.5251 75.6445 57.5251 75.5077V72.4969C57.5251 72.366 57.5288 72.2679 57.5368 72.2016C57.5456 72.1357 57.5729 72.0631 57.619 71.9834C57.7038 71.829 57.906 71.7518 58.2249 71.7518C58.5446 71.7518 58.7527 71.8034 58.8492 71.9062C58.9465 72.0094 58.9952 72.1575 58.9952 72.3509Z" fill="white"/>
<path d="M67.7283 72.2318C67.7619 71.9121 67.9867 71.7518 68.4029 71.7518C68.6253 71.7518 68.791 71.7694 68.8997 71.8038C69.0079 71.8386 69.0835 71.8986 69.1263 71.9834C69.1686 72.0686 69.1938 72.1441 69.2018 72.21C69.2106 72.2763 69.2152 72.3744 69.2152 72.5053V75.4976C69.2152 75.6298 69.2106 75.7288 69.2018 75.7947C69.1938 75.8597 69.1699 75.9348 69.1296 76.0196C69.0499 76.1685 68.8548 76.2428 68.5439 76.2428C68.2339 76.2428 68.0258 76.2042 67.9196 76.127C67.8143 76.0498 67.7535 75.9373 67.7367 75.7896C67.5252 76.0917 67.1728 76.2428 66.6794 76.2428C66.1868 76.2428 65.7295 76.0179 65.3066 75.5681C64.8845 75.1175 64.6739 74.5943 64.6739 73.999C64.6739 73.4028 64.8862 72.8808 65.3116 72.4332C65.7366 71.9859 66.2028 71.7619 66.7096 71.7619C66.9043 71.7619 67.0809 71.7963 67.2399 71.8642C67.3998 71.9326 67.511 71.9968 67.5739 72.0572C67.6364 72.1168 67.688 72.1747 67.7283 72.2318ZM66.1709 74.0107C66.1709 74.1987 66.2447 74.3682 66.3924 74.5192C66.5409 74.6703 66.7205 74.7458 66.9311 74.7458C67.1426 74.7458 67.318 74.6694 67.4581 74.5159C67.5978 74.3615 67.6679 74.192 67.6679 74.0074C67.6679 73.8219 67.6007 73.6491 67.4665 73.4888C67.3322 73.3289 67.1527 73.2488 66.9278 73.2488C66.7029 73.2488 66.5204 73.3289 66.3807 73.4888C66.2405 73.6491 66.1709 73.8227 66.1709 74.0107Z" fill="white"/>
<path d="M72.5167 73.2656L71.9612 73.232V74.4118C71.9612 74.5662 71.9851 74.6778 72.0333 74.7458C72.0824 74.8142 72.1735 74.8482 72.3069 74.8482C72.4412 74.8482 72.5439 74.8528 72.6157 74.8616C72.687 74.8696 72.7625 74.8964 72.8423 74.9421C72.9732 75.016 73.0386 75.2073 73.0386 75.5161C73.0386 75.8752 72.9585 76.0947 72.7986 76.174C72.7135 76.2142 72.6379 76.239 72.5721 76.2478C72.507 76.2558 72.4118 76.2596 72.2868 76.2596C71.6935 76.2596 71.2429 76.1261 70.9341 75.8585C70.6261 75.5899 70.4726 75.1364 70.4726 74.4974V73.232C70.3639 73.2488 70.2469 73.2572 70.1218 73.2572C69.9964 73.2572 69.8923 73.2094 69.8097 73.1129C69.7266 73.0155 69.6855 72.8502 69.6855 72.6161C69.6855 72.3824 69.6993 72.2129 69.7274 72.1076C69.7564 72.0027 69.7967 71.9272 69.8483 71.881C69.9397 71.8072 70.0539 71.7703 70.1906 71.7703L70.4726 71.8038V70.9228C70.4726 70.7919 70.4768 70.6954 70.486 70.6324C70.4948 70.5699 70.5217 70.5015 70.5666 70.4277C70.6412 70.2846 70.8611 70.2129 71.2261 70.2129C71.6129 70.2129 71.8437 70.3186 71.9175 70.53C71.9465 70.6207 71.9612 70.7663 71.9612 70.9664V71.8038C72.2117 71.7816 72.4013 71.7703 72.5301 71.7703C72.6585 71.7703 72.7554 71.7749 72.8204 71.7837C72.8863 71.7917 72.9618 71.8185 73.047 71.8642C73.1955 71.9381 73.2702 72.1575 73.2702 72.5221C73.2702 72.8813 73.193 73.1007 73.0386 73.18C72.9534 73.2203 72.8779 73.245 72.812 73.2538C72.7458 73.2618 72.6476 73.2656 72.5167 73.2656Z" fill="white"/>
<path d="M78.0853 73.4686C78.0853 73.819 77.998 74.0778 77.8235 74.2457C77.6498 74.4135 77.4576 74.4974 77.2462 74.4974H75.2188C75.2188 74.6577 75.3128 74.7919 75.5008 74.9002C75.6896 75.0088 75.8784 75.063 76.0664 75.063C76.3974 75.063 76.6571 75.0286 76.8451 74.9589L76.939 74.9254C77.0754 74.8628 77.1895 74.8314 77.2814 74.8314C77.4635 74.8314 77.6204 74.9598 77.7513 75.2157C77.8251 75.3701 77.8621 75.5018 77.8621 75.6101C77.8621 76.1169 77.255 76.3703 76.0412 76.3703C75.6191 76.3703 75.2444 76.2973 74.9168 76.1522C74.5887 76.007 74.3331 75.8144 74.1498 75.5748C73.7907 75.1142 73.6111 74.5981 73.6111 74.0275C73.6111 73.3092 73.8431 72.7348 74.3076 72.3039C74.7728 71.8735 75.3535 71.6578 76.0496 71.6578C76.8417 71.6578 77.4228 71.9377 77.7933 72.4969C77.9879 72.7936 78.0853 73.1175 78.0853 73.4686ZM76.2795 73.7187C76.4964 73.7187 76.6051 73.6277 76.6051 73.4451C76.6051 73.3142 76.5551 73.2094 76.4557 73.1296C76.3558 73.0503 76.2132 73.0105 76.0278 73.0105C75.8419 73.0105 75.6577 73.086 75.4756 73.237C75.2931 73.3881 75.2021 73.5488 75.2021 73.7187H76.2795Z" fill="white"/>
</svg>
