<svg width="22" height="25" viewBox="0 0 22 25" fill="none" xmlns="http://www.w3.org/2000/svg">
<path d="M10.9013 24.0439C9.70335 24.0439 8.51636 23.6922 7.58215 22.9998L2.85612 19.4718C1.60317 18.5376 0.625 16.5922 0.625 15.0315V6.86543C0.625 5.17286 1.86697 3.37038 3.46063 2.77688L8.94499 0.721619C10.0331 0.314962 11.7476 0.314962 12.8357 0.721619L18.3311 2.77688C19.9247 3.37038 21.1667 5.17286 21.1667 6.86543V15.0315C21.1667 16.5922 20.1885 18.5376 18.9356 19.4718L14.2096 22.9998C13.2863 23.6922 12.0993 24.0439 10.9013 24.0439ZM9.52749 2.26031L4.04313 4.31557C3.09793 4.66728 2.27361 5.85428 2.27361 6.86543V15.0315C2.27361 16.0756 3.01 17.5374 3.83431 18.1529L8.5603 21.6809C9.82424 22.6261 11.9674 22.6261 13.2314 21.6809L17.9574 18.1529C18.7927 17.5264 19.5181 16.0647 19.5181 15.0315V6.86543C19.5181 5.86527 18.6938 4.67827 17.7486 4.31557L12.2642 2.26031C11.5388 1.98555 10.2639 1.98555 9.52749 2.26031Z" fill="white"/>
<path d="M10.9013 11.8553C10.8794 11.8553 10.8574 11.8553 10.8244 11.8553C9.23074 11.8113 8.06574 10.5913 8.06574 9.10758C8.06574 7.59086 9.30767 6.34889 10.8244 6.34889C12.3411 6.34889 13.5831 7.59086 13.5831 9.10758C13.5721 10.6023 12.4071 11.8113 10.9233 11.8662C10.9123 11.8552 10.9123 11.8553 10.9013 11.8553ZM10.8244 7.9975C10.2089 7.9975 9.71435 8.4921 9.71435 9.10758C9.71435 9.71207 10.187 10.1956 10.7805 10.2176C10.7805 10.2176 10.8354 10.2176 10.9013 10.2176C11.4838 10.1846 11.9345 9.70108 11.9345 9.10758C11.9455 8.4921 11.4399 7.9975 10.8244 7.9975Z" fill="white"/>
<path d="M10.9012 18.098C9.95603 18.098 8.99984 17.8452 8.26347 17.3506C7.52709 16.867 7.10942 16.1526 7.10942 15.3943C7.10942 14.6359 7.52709 13.9215 8.26347 13.4269C9.74721 12.4377 12.0662 12.4487 13.539 13.4269C14.2754 13.9105 14.693 14.6249 14.693 15.3833C14.693 16.1416 14.2754 16.856 13.539 17.3506C12.8026 17.8452 11.8464 18.098 10.9012 18.098ZM9.17568 14.7898C8.90091 14.9656 8.74704 15.1854 8.75803 15.3833C8.75803 15.5811 8.9119 15.8009 9.17568 15.9768C10.0989 16.5922 11.7036 16.5922 12.6268 15.9768C12.9016 15.8009 13.0554 15.5811 13.0554 15.3833C13.0554 15.1854 12.9015 14.9656 12.6378 14.7898C11.7145 14.1853 10.0989 14.1853 9.17568 14.7898Z" fill="white"/>
</svg>
