<svg width="38" height="24" viewBox="0 0 38 24" fill="none" xmlns="http://www.w3.org/2000/svg">
<path d="M34.5455 0V24H38V0H34.5455ZM27.6364 24H31.0909V0H27.6364V24ZM22.4545 0H1.72727C0.777273 0 0 0.771429 0 1.71429V22.2857C0 23.2286 0.777273 24 1.72727 24H22.4545C23.4045 24 24.1818 23.2286 24.1818 22.2857V1.71429C24.1818 0.771429 23.4045 0 22.4545 0ZM12.0909 4.71429C14.2327 4.71429 15.9773 6.44571 15.9773 8.57143C15.9773 10.6971 14.2327 12.4286 12.0909 12.4286C9.94909 12.4286 8.20455 10.6971 8.20455 8.57143C8.20455 6.44571 9.94909 4.71429 12.0909 4.71429ZM19.8636 20.5714H4.31818V19.2857C4.31818 16.7143 9.5 15.4286 12.0909 15.4286C14.6818 15.4286 19.8636 16.7143 19.8636 19.2857V20.5714Z" fill="white"/>
</svg>
