<svg width="87" height="87" viewBox="0 0 87 87" fill="none" xmlns="http://www.w3.org/2000/svg">
<mask id="mask0_410_1960" style="mask-type:luminance" maskUnits="userSpaceOnUse" x="11" y="8" width="53" height="65">
<path d="M11.3852 8.70001H63.8583V72.5806H11.3852V8.70001Z" fill="white"/>
</mask>
<g mask="url(#mask0_410_1960)">
<path d="M28.6065 28.0535C23.265 26.3585 19.5226 23.0905 17.3236 20.6474C15.8527 19.0124 14.8533 17.5162 14.2965 16.594C24.4771 10.1672 34.4992 9.53871 44.1012 14.7287C48.2079 16.949 51.3961 19.8314 53.4457 21.9917C52.0368 21.1903 50.1165 20.2266 47.717 19.3157C42.7112 17.4147 34.5911 15.4063 24.3345 16.6351C23.946 16.6821 23.6687 17.0346 23.7152 17.4231C23.7618 17.8116 24.1146 18.0889 24.5032 18.0419C34.4446 16.8512 42.3089 18.7854 47.1556 20.618C50.7689 21.9845 53.2888 23.4983 54.5227 24.3194C44.8556 29.1876 36.146 30.4454 28.6065 28.0535ZM60.8337 28.4508L59.8008 29.4787C59.5167 29.7619 59.3867 30.1655 59.4525 30.5616C60.4624 36.6054 61.7932 51.6743 52.3632 61.0624C42.9298 70.4538 27.7879 69.128 21.7156 68.1223C21.3216 68.0573 20.921 68.1853 20.6382 68.4672L19.6056 69.4947C18.8169 70.2801 17.5334 70.2801 16.7447 69.4947C16.3641 69.1163 16.1547 68.6136 16.1547 68.0787C16.1547 67.5437 16.3641 67.0411 16.7447 66.6623L18.086 65.3272C18.3667 65.0478 18.4972 64.6521 18.4372 64.2611C17.3178 56.9297 16.7644 43.3112 25.641 34.4748C27.0138 33.1079 28.502 31.9655 30.0636 31.0152C32.1115 31.48 34.2265 31.7133 36.4069 31.7133C42.0005 31.7133 48.0208 30.1836 54.4073 27.138C54.8101 27.1904 55.199 27.245 55.5708 27.3012C55.9593 27.3604 56.3528 27.2307 56.631 26.9542L57.9723 25.6184C58.7615 24.8329 60.0449 24.8329 60.8337 25.6184C61.2138 25.9968 61.4232 26.5003 61.4232 27.0348C61.4232 27.5693 61.2138 28.0724 60.8337 28.4508ZM62.5829 30.2083C63.4341 29.3608 63.9032 28.2335 63.9032 27.0348C63.9032 25.8353 63.4341 24.7083 62.5829 23.8608C61.2273 22.5111 59.2142 22.2061 57.5603 22.9437C56.12 21.0963 51.8748 16.1346 45.3616 12.5914C40.6399 10.0229 35.7155 8.74909 30.7185 8.80028C24.4977 8.86699 18.1863 11.0047 11.9591 15.1549C11.4427 15.499 11.2606 16.172 11.532 16.7291C11.582 16.8332 12.8008 19.309 15.4109 22.2287C17.6979 24.7872 21.5213 28.1676 26.9542 30.111C25.8634 30.9019 24.8417 31.7708 23.8914 32.7173C19.596 36.9939 16.886 42.7054 15.8371 49.694C15.0119 55.1885 15.3865 60.4112 15.8942 64.0102L14.9951 64.9047C14.1442 65.7522 13.6756 66.8796 13.6756 68.0791C13.6756 69.2778 14.1442 70.4051 14.9951 71.2527C15.872 72.1249 17.0237 72.5613 18.1749 72.5613C19.327 72.5613 20.4787 72.1249 21.3552 71.2527L21.9405 70.6699C25.5575 71.2258 30.8259 71.6718 36.4354 70.9254C43.7396 69.9529 49.6873 67.2261 54.1128 62.8199C58.5396 58.4133 61.2797 52.4903 62.2564 45.2156C63.0066 39.6333 62.5594 34.3893 62.0009 30.7878L62.5829 30.2083Z" fill="white"/>
</g>
<mask id="mask1_410_1960" style="mask-type:luminance" maskUnits="userSpaceOnUse" x="29" y="40" width="5" height="5">
<path d="M29.3839 40.6508H33.5472V44.8141H29.3839V40.6508Z" fill="white"/>
</mask>
<g mask="url(#mask1_410_1960)">
<mask id="mask2_410_1960" style="mask-type:luminance" maskUnits="userSpaceOnUse" x="29" y="40" width="5" height="5">
<path d="M31.4658 40.6508C30.3162 40.6508 29.3839 41.5826 29.3839 42.7322C29.3839 43.8818 30.3162 44.8141 31.4658 44.8141C32.6154 44.8141 33.5472 43.8818 33.5472 42.7322C33.5472 41.5826 32.6154 40.6508 31.4658 40.6508Z" fill="white"/>
</mask>
<g mask="url(#mask2_410_1960)">
<path d="M29.3839 40.6508H33.5472V44.8141H29.3839V40.6508Z" fill="white"/>
</g>
</g>
<mask id="mask3_410_1960" style="mask-type:luminance" maskUnits="userSpaceOnUse" x="47" y="40" width="5" height="5">
<path d="M47.276 40.6508H51.4393V44.8141H47.276V40.6508Z" fill="white"/>
</mask>
<g mask="url(#mask3_410_1960)">
<mask id="mask4_410_1960" style="mask-type:luminance" maskUnits="userSpaceOnUse" x="47" y="40" width="5" height="5">
<path d="M49.3579 40.6508C48.2079 40.6508 47.276 41.5826 47.276 42.7322C47.276 43.8818 48.2079 44.8141 49.3579 44.8141C50.5075 44.8141 51.4393 43.8818 51.4393 42.7322C51.4393 41.5826 50.5075 40.6508 49.3579 40.6508Z" fill="white"/>
</mask>
<g mask="url(#mask4_410_1960)">
<path d="M47.276 40.6508H51.4393V44.8141H47.276V40.6508Z" fill="white"/>
</g>
</g>
<mask id="mask5_410_1960" style="mask-type:luminance" maskUnits="userSpaceOnUse" x="29" y="47" width="23" height="12">
<path d="M29.3839 47.9935H51.0185V58.3852H29.3839V47.9935Z" fill="white"/>
</mask>
<g mask="url(#mask5_410_1960)">
<path d="M40.1993 36.7564C34.224 36.7564 29.3839 41.5965 29.3839 47.5718C29.3839 53.5472 34.224 58.3869 40.1993 58.3869C46.1747 58.3869 51.0143 53.5472 51.0143 47.5718C51.0143 41.5965 46.1747 36.7564 40.1993 36.7564ZM40.1993 56.224C35.4189 56.224 31.5472 52.3519 31.5472 47.5718C31.5472 42.7914 35.4189 38.9197 40.1993 38.9197C44.9794 38.9197 48.8515 42.7914 48.8515 47.5718C48.8515 52.3519 44.9794 56.224 40.1993 56.224Z" fill="white"/>
</g>
<path d="M51.8377 74.9942H54.1638C54.3518 74.9942 54.4881 75.0156 54.5733 75.0579C54.6593 75.1007 54.7164 75.1679 54.7445 75.2593C54.7734 75.35 54.7881 75.4708 54.7881 75.6218C54.7881 75.7729 54.7734 75.8945 54.7445 75.986C54.7164 76.0766 54.6681 76.1396 54.6001 76.174C54.4915 76.231 54.3434 76.2596 54.1554 76.2596H51.0758C50.6772 76.2596 50.4435 76.1513 50.3743 75.934C50.3408 75.8434 50.324 75.6982 50.324 75.4976V70.7432C50.324 70.6123 50.3278 70.5145 50.3357 70.4495C50.3445 70.3836 50.3718 70.3077 50.418 70.2213C50.4973 70.0681 50.7192 69.9913 51.0842 69.9913C51.4836 69.9913 51.7203 70.0966 51.7941 70.3068C51.8231 70.4042 51.8377 70.5527 51.8377 70.7516V74.9942Z" fill="white"/>
<path d="M55.3442 72.5053C55.3442 72.3744 55.348 72.2762 55.356 72.21C55.3648 72.1441 55.3895 72.0686 55.4298 71.9834C55.5091 71.8357 55.731 71.7619 56.0961 71.7619C56.37 71.7619 56.5643 71.8101 56.6784 71.9062C56.7745 71.9859 56.8261 72.1084 56.8328 72.2737C56.8383 72.3308 56.8412 72.4139 56.8412 72.5221V75.5161C56.8412 75.647 56.8366 75.7456 56.8278 75.8115C56.8185 75.8765 56.7917 75.952 56.7472 76.038C56.6721 76.1857 56.4523 76.2595 56.0877 76.2595C55.7285 76.2595 55.5091 76.1823 55.4298 76.0279C55.3895 75.9432 55.3648 75.8694 55.356 75.8064C55.348 75.7439 55.3442 75.6445 55.3442 75.5077V72.5053ZM56.7506 70.9194C56.7078 71.0012 56.6323 71.0595 56.524 71.0939C56.4153 71.1287 56.271 71.1459 56.091 71.1459C55.9119 71.1459 55.768 71.1287 55.6597 71.0939C55.5523 71.0595 55.4768 70.9995 55.4332 70.9143C55.3904 70.8296 55.3648 70.7541 55.356 70.6878C55.348 70.6219 55.3442 70.5233 55.3442 70.3924C55.3442 70.2615 55.348 70.1638 55.356 70.0987C55.3648 70.0329 55.3895 69.9594 55.4298 69.8789C55.5091 69.7257 55.731 69.649 56.0961 69.649C56.4552 69.649 56.6721 69.7257 56.7472 69.8789C56.7917 69.9653 56.8185 70.0412 56.8278 70.1071C56.8366 70.1721 56.8412 70.2699 56.8412 70.4008C56.8412 70.5317 56.8366 70.6303 56.8278 70.6962C56.8185 70.7625 56.7929 70.8367 56.7506 70.9194Z" fill="white"/>
<path d="M58.9952 72.3509C59.2637 71.9461 59.5859 71.7434 59.9619 71.7434C60.5434 71.7434 60.9772 71.9918 61.2625 72.4885C61.325 72.4025 61.4005 72.3123 61.4891 72.2184C61.5772 72.1244 61.7181 72.022 61.912 71.9112C62.1054 71.7996 62.3051 71.7434 62.5111 71.7434C62.9663 71.7434 63.3477 71.9192 63.6557 72.2704C63.9645 72.6207 64.1189 73.201 64.1189 74.0107V75.5077C64.1189 75.6386 64.1142 75.7372 64.1054 75.8031C64.0975 75.8681 64.0706 75.9432 64.0249 76.028C63.951 76.1824 63.7312 76.2596 63.3653 76.2596C63.0062 76.2596 62.7868 76.1798 62.7075 76.0196C62.6672 75.9348 62.6424 75.8597 62.6336 75.7947C62.6256 75.7288 62.6219 75.6298 62.6219 75.4976V74.0023C62.6219 73.5056 62.4448 73.2572 62.0915 73.2572C61.8923 73.2572 61.7567 73.3235 61.6854 73.4552C61.6137 73.5861 61.578 73.7716 61.578 74.0107V75.5077C61.578 75.6445 61.5734 75.7439 61.5646 75.8064C61.5566 75.8694 61.5298 75.9432 61.484 76.028C61.4043 76.1824 61.1824 76.2596 60.8178 76.2596C60.4586 76.2596 60.2388 76.1798 60.1582 76.0196C60.1188 75.9348 60.0949 75.8597 60.0861 75.7947C60.0768 75.7288 60.0726 75.6298 60.0726 75.4976V74.0023C60.0726 73.5056 59.8956 73.2572 59.5423 73.2572C59.2008 73.2572 59.0304 73.5056 59.0304 74.0023V75.5161C59.0304 75.647 59.0258 75.7456 59.017 75.8115C59.0078 75.8765 58.9809 75.952 58.9365 76.038C58.85 76.1857 58.6277 76.2596 58.2685 76.2596C57.9094 76.2596 57.6899 76.1824 57.6106 76.028C57.5704 75.9432 57.5456 75.8694 57.5368 75.8064C57.5288 75.7439 57.5251 75.6445 57.5251 75.5077V72.4969C57.5251 72.366 57.5288 72.2679 57.5368 72.2016C57.5456 72.1357 57.5729 72.0631 57.619 71.9834C57.7038 71.829 57.906 71.7518 58.2249 71.7518C58.5446 71.7518 58.7527 71.8034 58.8492 71.9062C58.9465 72.0094 58.9952 72.1575 58.9952 72.3509Z" fill="white"/>
<path d="M67.7283 72.2318C67.7619 71.9121 67.9867 71.7518 68.4029 71.7518C68.6253 71.7518 68.791 71.7694 68.8997 71.8038C69.0079 71.8386 69.0835 71.8986 69.1263 71.9834C69.1686 72.0686 69.1938 72.1441 69.2018 72.21C69.2106 72.2763 69.2152 72.3744 69.2152 72.5053V75.4976C69.2152 75.6298 69.2106 75.7288 69.2018 75.7947C69.1938 75.8597 69.1699 75.9348 69.1296 76.0196C69.0499 76.1685 68.8548 76.2428 68.5439 76.2428C68.2339 76.2428 68.0258 76.2042 67.9196 76.127C67.8143 76.0498 67.7535 75.9373 67.7367 75.7896C67.5252 76.0917 67.1728 76.2428 66.6794 76.2428C66.1868 76.2428 65.7295 76.0179 65.3066 75.5681C64.8845 75.1175 64.6739 74.5943 64.6739 73.999C64.6739 73.4028 64.8862 72.8808 65.3116 72.4332C65.7366 71.9859 66.2028 71.7619 66.7096 71.7619C66.9043 71.7619 67.0809 71.7963 67.2399 71.8642C67.3998 71.9326 67.511 71.9968 67.5739 72.0572C67.6364 72.1168 67.688 72.1747 67.7283 72.2318ZM66.1709 74.0107C66.1709 74.1987 66.2447 74.3682 66.3924 74.5192C66.5409 74.6703 66.7205 74.7458 66.9311 74.7458C67.1426 74.7458 67.318 74.6694 67.4581 74.5159C67.5978 74.3615 67.6679 74.192 67.6679 74.0074C67.6679 73.8219 67.6007 73.6491 67.4665 73.4888C67.3322 73.3289 67.1527 73.2488 66.9278 73.2488C66.7029 73.2488 66.5204 73.3289 66.3807 73.4888C66.2405 73.6491 66.1709 73.8227 66.1709 74.0107Z" fill="white"/>
<path d="M72.5167 73.2656L71.9612 73.232V74.4118C71.9612 74.5662 71.9851 74.6778 72.0333 74.7458C72.0824 74.8142 72.1735 74.8482 72.3069 74.8482C72.4412 74.8482 72.5439 74.8528 72.6157 74.8616C72.687 74.8696 72.7625 74.8964 72.8423 74.9421C72.9732 75.016 73.0386 75.2073 73.0386 75.5161C73.0386 75.8752 72.9585 76.0947 72.7986 76.174C72.7135 76.2142 72.6379 76.239 72.5721 76.2478C72.507 76.2558 72.4118 76.2596 72.2868 76.2596C71.6935 76.2596 71.2429 76.1261 70.9341 75.8585C70.6261 75.5899 70.4726 75.1364 70.4726 74.4974V73.232C70.3639 73.2488 70.2469 73.2572 70.1218 73.2572C69.9964 73.2572 69.8923 73.2094 69.8097 73.1129C69.7266 73.0155 69.6855 72.8502 69.6855 72.6161C69.6855 72.3824 69.6993 72.2129 69.7274 72.1076C69.7564 72.0027 69.7967 71.9272 69.8483 71.881C69.9397 71.8072 70.0539 71.7703 70.1906 71.7703L70.4726 71.8038V70.9228C70.4726 70.7919 70.4768 70.6954 70.486 70.6324C70.4948 70.5699 70.5217 70.5015 70.5666 70.4277C70.6412 70.2846 70.8611 70.2129 71.2261 70.2129C71.6129 70.2129 71.8437 70.3186 71.9175 70.53C71.9465 70.6207 71.9612 70.7663 71.9612 70.9664V71.8038C72.2117 71.7816 72.4013 71.7703 72.5301 71.7703C72.6585 71.7703 72.7554 71.7749 72.8204 71.7837C72.8863 71.7917 72.9618 71.8185 73.047 71.8642C73.1955 71.9381 73.2702 72.1575 73.2702 72.5221C73.2702 72.8813 73.193 73.1007 73.0386 73.18C72.9534 73.2203 72.8779 73.245 72.812 73.2538C72.7458 73.2618 72.6476 73.2656 72.5167 73.2656Z" fill="white"/>
<path d="M78.0853 73.4686C78.0853 73.819 77.998 74.0778 77.8235 74.2457C77.6498 74.4135 77.4576 74.4974 77.2462 74.4974H75.2188C75.2188 74.6577 75.3128 74.7919 75.5008 74.9002C75.6896 75.0088 75.8784 75.063 76.0664 75.063C76.3974 75.063 76.6571 75.0286 76.8451 74.9589L76.939 74.9254C77.0754 74.8628 77.1895 74.8314 77.2814 74.8314C77.4635 74.8314 77.6204 74.9598 77.7513 75.2157C77.8251 75.3701 77.8621 75.5018 77.8621 75.6101C77.8621 76.1169 77.255 76.3703 76.0412 76.3703C75.6191 76.3703 75.2444 76.2973 74.9168 76.1522C74.5887 76.007 74.3331 75.8144 74.1498 75.5748C73.7907 75.1142 73.6111 74.5981 73.6111 74.0275C73.6111 73.3092 73.8431 72.7348 74.3076 72.3039C74.7728 71.8735 75.3535 71.6578 76.0496 71.6578C76.8417 71.6578 77.4228 71.9377 77.7933 72.4969C77.9879 72.7936 78.0853 73.1175 78.0853 73.4686ZM76.2795 73.7187C76.4964 73.7187 76.6051 73.6277 76.6051 73.4451C76.6051 73.3142 76.5551 73.2094 76.4557 73.1296C76.3558 73.0503 76.2132 73.0105 76.0278 73.0105C75.8419 73.0105 75.6577 73.086 75.4756 73.237C75.2931 73.3881 75.2021 73.5488 75.2021 73.7187H76.2795Z" fill="white"/>
</svg>
